<svg id="Layer_2" data-name="Layer 2" xmlns="http://www.w3.org/2000/svg" viewBox="0 0 76.44 56.36">
  <defs>
    <style>
      .cls-1 {
        fill: #2b2e31;
      }
    </style>
  </defs>
  <g id="_1" data-name=" 1">
    <g>
      <path class="cls-1" d="M26.01,4.54l3.15,2.16-17.5,5.81-2.68-1.78,17.04-6.19M26.58,0L0,9.66l11.05,7.34,27.17-9.01L26.58,0h0Z"/>
      <path class="cls-1" d="M50.43,4.54l17.04,6.19-2.68,1.78-17.5-5.81,3.15-2.16M49.85,0l-11.64,7.98,27.17,9.01,11.05-7.34L49.85,0h0Z"/>
      <path class="cls-1" d="M64.48,21.66l2.8,1.59-16.56,7.38-3.29-1.93,17.05-7.03M64.76,17.14l-26.46,10.91,12.17,7.14,25.83-11.51-11.54-6.54h0Z"/>
      <path class="cls-1" d="M12.12,21.66l17.05,7.03-3.29,1.93-16.56-7.38,2.8-1.59M11.84,17.14L.3,23.68l25.83,11.51,12.17-7.14-26.46-10.91h0Z"/>
      <polygon class="cls-1" points="10.54 16.48 10.54 19.79 11.76 18.65 18.55 22.56 18 23.95 31.94 29.69 31.94 29.69 36.31 31.46 36.31 50.93 34.14 49.95 34.14 49.98 14.61 40.91 14.61 28.53 10.54 26.82 10.54 43.5 38.21 56.36 38.21 27.88 10.54 16.48"/>
      <polygon class="cls-1" points="61.81 27.98 61.81 40.91 42.28 49.98 42.28 49.95 40.11 50.93 40.11 31.46 44.49 29.69 44.49 29.69 58.44 23.95 57.33 21.91 63.44 18.65 65.88 19.91 65.88 16.48 38.21 27.88 38.21 56.36 65.88 43.5 65.88 26.1 61.81 27.98"/>
    </g>
  </g>
</svg>