<svg id="Layer_2" data-name="Layer 2" xmlns="http://www.w3.org/2000/svg" viewBox="0 0 45.53 65.07">
  <defs>
    <style>
      .cls-1 {
        fill: #2b2e31;
      }
    </style>
  </defs>
  <g id="_1" data-name=" 1">
    <g>
      <polygon class="cls-1" points="17.04 42.9 12.34 45.12 7.85 56.06 18.64 65.07 21.98 50.08 20.16 47.42 17.04 42.9"/>
      <polygon class="cls-1" points="28.91 42.9 33.61 45.12 38.1 56.06 27.31 65.07 23.97 50.08 25.8 47.42 28.91 42.9"/>
      <path class="cls-1" d="M45.53,22.8l-6.35-4.41,3.32-6.98-7.7-.64-.62-7.71-6.99,3.3L22.8,0l-4.4,6.35-6.98-3.32-.64,7.7-7.71.62,3.3,6.99L0,22.73l6.35,4.41-3.32,6.98,7.7.64.61,7.71,2.88-1.36,4.12-1.94,4.38,6.37.85-1.23,3.55-5.12,6.98,3.32.64-7.71,7.71-.61-3.3-6.99,6.37-4.38ZM24.06,34.21c-6.32.71-12.03-3.84-12.74-10.16-.71-6.32,3.83-12.03,10.16-12.74,6.32-.71,12.03,3.84,12.74,10.16.71,6.32-3.83,12.03-10.16,12.74Z"/>
    </g>
  </g>
</svg>