<svg id="Layer_2" data-name="Layer 2" xmlns="http://www.w3.org/2000/svg" viewBox="0 0 52.3 52.3">
  <defs>
    <style>
      .cls-1 {
        fill: #2b2e31;
      }
    </style>
  </defs>
  <g id="_1" data-name=" 1">
    <path class="cls-1" d="M27.47,3.54C25.53,1.59,21.69.05,18.94.12L5.55.43C2.8.5.5,2.8.43,5.55L.12,18.94c-.06,2.75,1.47,6.59,3.42,8.53l21.29,21.29c1.94,1.94,5.13,1.94,7.07,0l16.87-16.87c1.94-1.94,1.94-5.13,0-7.07L27.47,3.54ZM13.21,19.68c-3.57,0-6.47-2.9-6.47-6.47s2.9-6.47,6.47-6.47,6.47,2.9,6.47,6.47-2.9,6.47-6.47,6.47Z"/>
  </g>
</svg>