<svg id="Layer_2" data-name="Layer 2" xmlns="http://www.w3.org/2000/svg" viewBox="0 0 58.86 55.84">
  <defs>
    <style>
      .cls-1 {
        fill: #2b2e31;
      }
    </style>
  </defs>
  <g id="_1" data-name=" 1">
    <g>
      <path class="cls-1" d="M58.84,19.11v-1.91L48.18,1.13H10.68L.02,17.2v1.91c0,.06-.02.12-.02.18,0,1.48,1.2,2.67,2.67,2.67s2.58-1.12,2.66-2.52h.02v-.15c0,1.48,1.2,2.67,2.67,2.67s2.58-1.12,2.66-2.52h.02v-.15c0,1.48,1.2,2.67,2.67,2.67s2.58-1.12,2.66-2.52h.02v-.15c0,1.48,1.2,2.67,2.67,2.67s2.54-1.09,2.65-2.46c.11,1.38,1.3,2.46,2.7,2.46s2.58-1.12,2.66-2.52h.02v-.15c0,1.48,1.2,2.67,2.67,2.67,0,0,0,0,0,0s0,0,0,0c1.47,0,2.67-1.2,2.67-2.67v.15h.02c.08,1.4,1.23,2.52,2.66,2.52s2.59-1.09,2.7-2.46c.11,1.38,1.24,2.46,2.65,2.46,1.48,0,2.67-1.2,2.67-2.67v.15h.02c.08,1.4,1.23,2.52,2.66,2.52s2.67-1.2,2.67-2.67v.15h.02c.08,1.4,1.23,2.52,2.66,2.52s2.67-1.2,2.67-2.67v.15h.02c.08,1.4,1.23,2.52,2.66,2.52s2.67-1.2,2.67-2.67c0-.06-.01-.12-.02-.18ZM5.35,17.36v-.16h.02l-.02.16ZM4.61,16.83l-.09.18v2.13l-.02.26c-.06.97-.86,1.73-1.82,1.73s-1.83-.81-1.84-1.82c0-.06.01-.1.02-.15v-.03s0-.03,0-.03v-1.66L11.13,1.96h.98l-7.51,14.87ZM15.33,16.81c-.07.12-.1.25-.1.4v2.05s-.02.1-.02.15c-.06.97-.86,1.73-1.82,1.73s-1.83-.81-1.84-1.82c0-.06.01-.1.02-.15,0-.02,0-.04,0-.06v-1.77L18.04,1.96h2.13l-4.84,14.85ZM26,16.37h0l-.07.83v1.93l-.02.26c-.06.97-.86,1.73-1.82,1.73s-1.83-.81-1.84-1.82c0-.06.01-.1.02-.15v-.03s0-.03,0-.03v-1.82l3.27-15.33h1.61l-1.13,14.41ZM34.79,21.14c-.97,0-1.77-.76-1.82-1.73l-.02-.26v-1.93l-.07-.83h0l-1.13-14.41h1.61l3.27,15.33v1.88s0,.08.02.15c-.01,1-.83,1.82-1.84,1.82ZM45.49,21.14c-.97,0-1.77-.76-1.82-1.73,0-.05-.01-.1-.02-.15v-2.05c0-.14-.04-.28-.1-.4l-4.84-14.85h2.13l6.48,15.38v1.77s0,.04,0,.06c0,.04,0,.08.02.15-.01,1-.83,1.82-1.84,1.82ZM53.51,17.36l-.02-.16h.02v.16ZM56.19,21.14c-.97,0-1.77-.76-1.82-1.73l-.02-.26v-2.13l-.09-.18-7.51-14.87h.98l10.28,15.49v1.72s0,.08.02.15c-.01,1-.83,1.82-1.84,1.82Z"/>
      <rect class="cls-1" x="10.68" width="37.38" height="1.13"/>
      <polygon class="cls-1" points="54.36 51.71 4.49 51.71 4.49 19.45 6.16 19.45 6.16 50.05 52.7 50.05 52.7 19.45 54.36 19.45 54.36 51.71"/>
      <rect class="cls-1" x="2.53" y="50.88" width="53.93" height="4.96"/>
      <path class="cls-1" d="M49.52,48.44h-13.24v-21.25h13.24v21.25ZM37.94,46.77h9.91v-17.92h-9.91v17.92Z"/>
      <path class="cls-1" d="M29.14,41.72H11.37v-14.54h17.77v14.54ZM13.03,40.06h14.44v-11.21h-14.44v11.21Z"/>
      <rect class="cls-1" x="19.42" y="28.02" width="1.66" height="12.87"/>
      <rect class="cls-1" x="39.22" y="36.89" width="1.66" height="4"/>
    </g>
  </g>
</svg>